<svg width="414" height="139" viewBox="0 0 414 139" fill="none" xmlns="http://www.w3.org/2000/svg">
<path d="M-1 138H414V83.5H-1V138Z" fill="white"/>
<path d="M44.5 91.5C45.3 133.1 15.5 139.333 0 137.5V0H415V138C368.6 139 365 107 366 91.5H44.5Z" fill="#ED5353"/>
<path d="M165.304 31.0152C162.927 28.8252 162.775 25.123 164.965 22.7462L174.867 12L188.788 24.8272L178.887 35.5734C176.696 37.9502 172.994 38.1016 170.618 35.9116L165.304 31.0152Z" fill="white"/>
<rect x="177.174" y="54.0518" width="37.1998" height="17.7912" transform="rotate(-90 177.174 54.0518)" fill="white"/>
<rect x="207.904" y="54.0518" width="37.1998" height="16.1738" transform="rotate(-90 207.904 54.0518)" fill="white"/>
<path d="M233.332 33.2118C237.103 29.7369 237.343 23.8627 233.868 20.0914L226.413 12.0005L212.756 24.5844L220.211 32.6752C223.686 36.4465 229.56 36.6868 233.332 33.2118V33.2118Z" fill="white"/>
<rect width="53.3736" height="17.7912" rx="1" transform="matrix(-1 8.74228e-08 8.74228e-08 1 227.312 12)" fill="white"/>
<rect width="53.3736" height="4.85214" transform="matrix(-1 8.74228e-08 8.74228e-08 1 227.312 57.2861)" fill="white"/>
</svg>
